<?xml version="1.0" standalone="no"?>
<!DOCTYPE svg PUBLIC "-//W3C//DTD SVG 20010904//EN"
 "http://www.w3.org/TR/2001/REC-SVG-20010904/DTD/svg10.dtd">
<svg version="1.0" xmlns="http://www.w3.org/2000/svg"
 width="289.000000pt" height="55.492070pt" viewBox="0 0 289.000000 55.492070"
 preserveAspectRatio="xMidYMid meet" class="svg">
<metadata>
Created by potrace 1.12, written by Peter Selinger 2001-2015
</metadata>
<g transform="translate(-105.000000,269.749742) scale(0.100000,-0.100000)"
fill="#000000" stroke="none">
<path d="M2255 2686 c-208 -48 -303 -180 -253 -350 49 -166 351 -246 589 -156
63 23 169 95 169 113 -1 24 -30 52 -44 42 -7 -6 -32 -24 -56 -42 -69 -53 -142
-76 -256 -81 -160 -7 -268 37 -314 127 -66 131 33 264 214 290 135 19 272 -18
359 -98 28 -26 54 -41 71 -41 l26 0 0 100 0 100 -35 0 -35 0 0 -54 0 -55 -50
34 c-108 73 -257 100 -385 71z"/>
<path d="M1050 2590 l0 -100 35 0 35 0 0 70 0 70 150 0 150 0 0 -210 0 -210
-85 0 -85 0 0 -30 0 -30 215 0 215 0 0 30 0 29 -87 3 -88 3 0 205 0 205 150 0
150 0 3 -67 3 -68 34 0 35 0 0 100 0 100 -415 0 -415 0 0 -100z"/>
<path d="M2890 2660 l0 -30 85 0 85 0 0 -210 0 -210 -85 0 -85 0 0 -30 0 -30
210 0 210 0 0 30 0 29 -82 3 -83 3 -3 88 -3 87 276 0 275 0 0 -90 0 -90 -85 0
-85 0 0 -30 0 -30 210 0 210 0 0 30 0 29 -82 3 -83 3 0 205 0 205 83 3 82 3 0
29 0 30 -210 0 -210 0 0 -30 0 -30 85 0 85 0 0 -90 0 -90 -275 0 -276 0 3 88
3 87 83 3 82 3 0 29 0 30 -210 0 -210 0 0 -30z"/>
</g>
</svg>
